<svg width="22" height="22" viewBox="0 0 22 22" fill="none" xmlns="http://www.w3.org/2000/svg">
<path d="M21.217 7.67616L21.2174 7.67652C21.402 7.81785 21.4992 8.01911 21.5 8.22822C21.5 8.2284 21.5 8.22859 21.5 8.22877L21.5 20.7719C21.5 21.146 21.1671 21.5 20.7057 21.5H14.8822C14.4208 21.5 14.0879 21.146 14.0879 20.7719V12.8319V12.3319H13.5879H8.41207H7.91207V12.8319V20.7719C7.91207 21.146 7.5792 21.5 7.11782 21.5H1.29425C0.832874 21.5 0.5 21.146 0.5 20.7719V8.22721C0.5 8.01943 0.596344 7.81816 0.782741 7.6753L0.783033 7.67508L9.4676 1.00888C9.46765 1.00884 9.46771 1.0088 9.46776 1.00876C10.3524 0.330416 11.6465 0.330415 12.5311 1.00875C12.5311 1.00879 12.5312 1.00883 12.5312 1.00888L21.217 7.67616ZM20.7046 21.2785H21.2046L21.2046 20.7785L21.2057 8.22726L21.2058 7.98069L21.0102 7.83057L12.3244 1.16432C11.5551 0.573616 10.4457 0.571664 9.67528 1.16458C9.67523 1.16461 9.67519 1.16464 9.67515 1.16467L0.989832 7.83057L0.794253 7.98067V8.22721V20.7785V21.2785H1.29425H7.11666H7.61666V20.7785V12.8265C7.61666 12.4586 7.943 12.1104 8.41092 12.1104H13.5868C14.0547 12.1104 14.381 12.4586 14.381 12.8265V20.7785V21.2785H14.881H20.7046Z" fill="#9F9F9E" stroke="#FC8019"/>
</svg>
