<svg width="280" height="280" viewBox="0 0 280 280" fill="none" xmlns="http://www.w3.org/2000/svg">
<path d="M280 280C280 280 280 260.75 278.396 250.688C277.083 242.74 266.073 232.24 219.26 215.031C173.177 198.115 176.021 206.354 176.021 175.219C176.021 155.021 186.302 166.76 192.865 128.406C195.417 113.313 197.458 123.375 203 99.1667C205.917 86.4792 201.031 85.5313 201.615 79.4792C202.198 73.4271 202.781 68.0313 203.875 55.6354C205.188 40.3229 190.969 0 140 0C89.0312 0 74.8125 40.3229 76.1979 55.7083C77.2917 68.0312 77.875 73.5 78.4583 79.5521C79.0417 85.6042 74.1562 86.5521 77.0729 99.2396C82.6146 123.375 84.6563 113.313 87.2083 128.479C93.7708 166.833 104.052 155.094 104.052 175.292C104.052 206.5 106.896 198.26 60.8125 215.104C14 232.24 2.91667 242.812 1.67709 250.76C2.26498e-06 260.75 0 280 0 280H140H280Z" fill="#171826" fill-opacity="0.8"/>
</svg>
